<svg width="187" height="42" viewBox="0 0 187 42" fill="none" xmlns="http://www.w3.org/2000/svg">
<path d="M66.125 34H67.245V10.655H66.125V21.47H50.2V10.655H49.08V34H50.2V22.52H66.125V34ZM73.4159 34H87.6959V32.95H74.5359V22.52H87.4509V21.47H74.5359V11.705H87.6959V10.655H73.4159V34ZM92.9325 34H94.0525V10.655H92.9325V34ZM100.213 34H107.143C114.388 34 118.763 28.645 118.763 22.345C118.763 16.115 114.388 10.655 107.143 10.655H100.213V34ZM101.333 32.95V11.705H107.143C113.758 11.705 117.538 16.5 117.538 22.345C117.538 28.26 113.758 32.95 107.143 32.95H101.333ZM124.139 34H125.259V10.655H124.139V34ZM157.381 34H158.501V10.655H157.381V31.97L141.631 10.655H140.511V34H141.631V12.475L157.381 34ZM163.871 22.345C163.871 29.52 169.051 34.455 175.526 34.455C179.026 34.455 182.071 32.95 184.066 30.71V22.8H173.321V23.85H182.946V30.255C181.581 31.69 178.956 33.405 175.526 33.405C169.681 33.405 165.096 28.855 165.096 22.345C165.096 15.765 169.681 11.32 175.526 11.32C178.641 11.32 181.511 12.58 183.331 14.645L184.066 13.875C181.791 11.53 179.061 10.27 175.526 10.27C169.051 10.27 163.871 15.17 163.871 22.345Z" fill="#373737"/>
<path d="M25.6412 41.3701H25.1782C24.7622 41.3701 24.4238 41.0362 24.4238 40.6235V29.0959C24.4238 24.4568 20.8742 20.4789 16.1988 20.1245C10.9645 19.728 6.57635 23.8302 6.57635 28.9274V40.4679C6.57635 40.966 6.168 41.369 5.66575 41.369H5.3644C2.4022 41.3701 0.0012207 38.9932 0.0012207 36.0622V29.1856C0.0012207 20.9078 6.83731 13.7514 15.2009 13.5947C23.8833 13.4316 31 20.373 31 28.9274V36.0676C30.9989 38.9965 28.6001 41.3701 25.6412 41.3701Z" fill="#E27156"/>
<path d="M6.3416 12.9319V1.17634C6.3416 0.87492 6.09485 0.631836 5.79131 0.631836C2.59328 0.630756 0.0012207 3.19556 0.0012207 6.35997V18.5498C0.0012207 18.8642 0.410665 18.982 0.588637 18.7205C1.95564 16.7002 3.79322 14.7761 5.94745 13.5877C6.18874 13.4537 6.3416 13.2052 6.3416 12.9319Z" fill="#E5B438"/>
</svg>
