<svg width="36" height="46" viewBox="0 0 36 46" fill="none" xmlns="http://www.w3.org/2000/svg">
<path d="M28.9505 46H28.4278C27.9581 46 27.5759 45.6231 27.5759 45.1571V32.1411C27.5759 26.903 23.568 22.4114 18.289 22.0113C12.3788 21.5636 7.42409 26.1955 7.42409 31.9508V44.9814C7.42409 45.5438 6.96302 45.9988 6.39591 45.9988H6.05565C2.71099 46 0 43.3163 0 40.0068V32.2423C0 22.8957 7.71874 14.8153 17.1622 14.6384C26.9657 14.4542 35.0012 22.2919 35.0012 31.9508V40.0129C35 43.32 32.2915 46 28.9505 46Z" fill="#E27156"/>
<path d="M7.15904 13.89V0.616645C7.15904 0.276302 6.88042 0.00183144 6.53769 0.00183144C2.92673 0.000611572 0 2.89658 0 6.46957V20.2333C0 20.5883 0.462311 20.7213 0.663262 20.4261C2.20676 18.1449 4.28161 15.9723 6.71398 14.6305C6.98644 14.4792 7.15904 14.1987 7.15904 13.89Z" fill="#E5B438"/>
</svg>
